<svg id="visual" viewBox="0 0 960 540" width="960" height="540" xmlns="http://www.w3.org/2000/svg" xmlns:xlink="http://www.w3.org/1999/xlink" version="1.1"><rect x="0" y="0" width="960" height="540" fill="#ffffff"></rect><path d="M602 0L508 0L508 77L486 77L486 154L661 154L661 231L540 231L540 309L611 309L611 386L656 386L656 463L563 463L563 540L0 540L0 463L0 463L0 386L0 386L0 309L0 309L0 231L0 231L0 154L0 154L0 77L0 77L0 0L0 0Z" fill="#858585"></path><path d="M381 0L351 0L351 77L248 77L248 154L394 154L394 231L351 231L351 309L394 309L394 386L264 386L264 463L260 463L260 540L0 540L0 463L0 463L0 386L0 386L0 309L0 309L0 231L0 231L0 154L0 154L0 77L0 77L0 0L0 0Z" fill="#ff0000"></path></svg>