<svg id="visual" viewBox="0 0 960 540" width="960" height="540" xmlns="http://www.w3.org/2000/svg" xmlns:xlink="http://www.w3.org/1999/xlink" version="1.1"><rect x="0" y="0" width="960" height="540" fill="#00bfa6"></rect><path d="M610 0L601 0L601 90L616 90L616 180L575 180L575 270L618 270L618 360L497 360L497 450L585 450L585 540L0 540L0 450L0 450L0 360L0 360L0 270L0 270L0 180L0 180L0 90L0 90L0 0L0 0Z" fill="#0099ff"></path><path d="M391 0L376 0L376 90L360 90L360 180L392 180L392 270L326 270L326 360L385 360L385 450L425 450L425 540L0 540L0 450L0 450L0 360L0 360L0 270L0 270L0 180L0 180L0 90L0 90L0 0L0 0Z" fill="#098bdc"></path><path d="M246 0L249 0L249 90L144 90L144 180L159 180L159 270L193 270L193 360L239 360L239 450L220 450L220 540L0 540L0 450L0 450L0 360L0 360L0 270L0 270L0 180L0 180L0 90L0 90L0 0L0 0Z" fill="#1f7cba"></path></svg>