<?xml version="1.0" standalone="no"?><svg xmlns="http://www.w3.org/2000/svg" viewBox="0 0 1440 320"><path fill="#F3F4F6" fill-opacity="1" d="M0,256L24,229.3C48,203,96,149,144,106.7C192,64,240,32,288,37.3C336,43,384,85,432,133.3C480,181,528,235,576,261.3C624,288,672,288,720,261.3C768,235,816,181,864,133.3C912,85,960,43,1008,37.3C1056,32,1104,64,1152,101.3C1200,139,1248,181,1296,186.7C1344,192,1392,160,1416,144L1440,128L1440,320L1416,320C1392,320,1344,320,1296,320C1248,320,1200,320,1152,320C1104,320,1056,320,1008,320C960,320,912,320,864,320C816,320,768,320,720,320C672,320,624,320,576,320C528,320,480,320,432,320C384,320,336,320,288,320C240,320,192,320,144,320C96,320,48,320,24,320L0,320Z"></path></svg>