<svg id="visual" viewBox="0 0 900 600" width="900" height="600" xmlns="http://www.w3.org/2000/svg" xmlns:xlink="http://www.w3.org/1999/xlink" version="1.1"><rect x="0" y="0" width="900" height="600" fill="#0091ff"></rect><path d="M0 378L16.7 385.2C33.3 392.3 66.7 406.7 100 415.2C133.3 423.7 166.7 426.3 200 425.3C233.3 424.3 266.7 419.7 300 414.3C333.3 409 366.7 403 400 400.7C433.3 398.3 466.7 399.7 500 396.3C533.3 393 566.7 385 600 386.7C633.3 388.3 666.7 399.7 700 402.3C733.3 405 766.7 399 800 394.7C833.3 390.3 866.7 387.7 883.3 386.3L900 385L900 601L883.3 601C866.7 601 833.3 601 800 601C766.7 601 733.3 601 700 601C666.7 601 633.3 601 600 601C566.7 601 533.3 601 500 601C466.7 601 433.3 601 400 601C366.7 601 333.3 601 300 601C266.7 601 233.3 601 200 601C166.7 601 133.3 601 100 601C66.7 601 33.3 601 16.7 601L0 601Z" fill="#f3f4f6"></path><path d="M0 424L16.7 424.5C33.3 425 66.7 426 100 424.5C133.3 423 166.7 419 200 420.7C233.3 422.3 266.7 429.7 300 436.3C333.3 443 366.7 449 400 449.8C433.3 450.7 466.7 446.3 500 444.3C533.3 442.3 566.7 442.7 600 442.3C633.3 442 666.7 441 700 440C733.3 439 766.7 438 800 432.8C833.3 427.7 866.7 418.3 883.3 413.7L900 409L900 601L883.3 601C866.7 601 833.3 601 800 601C766.7 601 733.3 601 700 601C666.7 601 633.3 601 600 601C566.7 601 533.3 601 500 601C466.7 601 433.3 601 400 601C366.7 601 333.3 601 300 601C266.7 601 233.3 601 200 601C166.7 601 133.3 601 100 601C66.7 601 33.3 601 16.7 601L0 601Z" fill="#f3f4f6"></path><path d="M0 410L16.7 418.5C33.3 427 66.7 444 100 446.3C133.3 448.7 166.7 436.3 200 433.8C233.3 431.3 266.7 438.7 300 444.7C333.3 450.7 366.7 455.3 400 457.3C433.3 459.3 466.7 458.7 500 454.8C533.3 451 566.7 444 600 444.3C633.3 444.7 666.7 452.3 700 449.8C733.3 447.3 766.7 434.7 800 426.5C833.3 418.3 866.7 414.7 883.3 412.8L900 411L900 601L883.3 601C866.7 601 833.3 601 800 601C766.7 601 733.3 601 700 601C666.7 601 633.3 601 600 601C566.7 601 533.3 601 500 601C466.7 601 433.3 601 400 601C366.7 601 333.3 601 300 601C266.7 601 233.3 601 200 601C166.7 601 133.3 601 100 601C66.7 601 33.3 601 16.7 601L0 601Z" fill="#f3f4f6"></path><path d="M0 454L16.7 456.8C33.3 459.7 66.7 465.3 100 464.3C133.3 463.3 166.7 455.7 200 452C233.3 448.3 266.7 448.7 300 451.3C333.3 454 366.7 459 400 459.7C433.3 460.3 466.7 456.7 500 453.5C533.3 450.3 566.7 447.7 600 447.3C633.3 447 666.7 449 700 446.2C733.3 443.3 766.7 435.7 800 434.3C833.3 433 866.7 438 883.3 440.5L900 443L900 601L883.3 601C866.7 601 833.3 601 800 601C766.7 601 733.3 601 700 601C666.7 601 633.3 601 600 601C566.7 601 533.3 601 500 601C466.7 601 433.3 601 400 601C366.7 601 333.3 601 300 601C266.7 601 233.3 601 200 601C166.7 601 133.3 601 100 601C66.7 601 33.3 601 16.7 601L0 601Z" fill="#f3f4f6"></path><path d="M0 445L16.7 453.5C33.3 462 66.7 479 100 479.8C133.3 480.7 166.7 465.3 200 457.2C233.3 449 266.7 448 300 448.7C333.3 449.3 366.7 451.7 400 455.7C433.3 459.7 466.7 465.3 500 468.3C533.3 471.3 566.7 471.7 600 475.3C633.3 479 666.7 486 700 483.2C733.3 480.3 766.7 467.7 800 461.2C833.3 454.7 866.7 454.3 883.3 454.2L900 454L900 601L883.3 601C866.7 601 833.3 601 800 601C766.7 601 733.3 601 700 601C666.7 601 633.3 601 600 601C566.7 601 533.3 601 500 601C466.7 601 433.3 601 400 601C366.7 601 333.3 601 300 601C266.7 601 233.3 601 200 601C166.7 601 133.3 601 100 601C66.7 601 33.3 601 16.7 601L0 601Z" fill="#f3f4f6"></path><path d="M0 500L16.7 498C33.3 496 66.7 492 100 492.7C133.3 493.3 166.7 498.7 200 498.8C233.3 499 266.7 494 300 489.8C333.3 485.7 366.7 482.3 400 480.7C433.3 479 466.7 479 500 478.5C533.3 478 566.7 477 600 481.5C633.3 486 666.7 496 700 500C733.3 504 766.7 502 800 499.7C833.3 497.3 866.7 494.7 883.3 493.3L900 492L900 601L883.3 601C866.7 601 833.3 601 800 601C766.7 601 733.3 601 700 601C666.7 601 633.3 601 600 601C566.7 601 533.3 601 500 601C466.7 601 433.3 601 400 601C366.7 601 333.3 601 300 601C266.7 601 233.3 601 200 601C166.7 601 133.3 601 100 601C66.7 601 33.3 601 16.7 601L0 601Z" fill="#f3f4f6"></path><path d="M0 506L16.7 508C33.3 510 66.7 514 100 514C133.3 514 166.7 510 200 507.3C233.3 504.7 266.7 503.3 300 506.3C333.3 509.3 366.7 516.7 400 515C433.3 513.3 466.7 502.7 500 502.5C533.3 502.3 566.7 512.7 600 514.5C633.3 516.3 666.7 509.7 700 508.2C733.3 506.7 766.7 510.3 800 512C833.3 513.7 866.7 513.3 883.3 513.2L900 513L900 601L883.3 601C866.7 601 833.3 601 800 601C766.7 601 733.3 601 700 601C666.7 601 633.3 601 600 601C566.7 601 533.3 601 500 601C466.7 601 433.3 601 400 601C366.7 601 333.3 601 300 601C266.7 601 233.3 601 200 601C166.7 601 133.3 601 100 601C66.7 601 33.3 601 16.7 601L0 601Z" fill="#f3f4f6"></path><path d="M0 511L16.7 510.3C33.3 509.7 66.7 508.3 100 512.5C133.3 516.7 166.7 526.3 200 525.5C233.3 524.7 266.7 513.3 300 512.7C333.3 512 366.7 522 400 527.5C433.3 533 466.7 534 500 528.3C533.3 522.7 566.7 510.3 600 509.5C633.3 508.7 666.7 519.3 700 525.3C733.3 531.3 766.7 532.7 800 532.2C833.3 531.7 866.7 529.3 883.3 528.2L900 527L900 601L883.3 601C866.7 601 833.3 601 800 601C766.7 601 733.3 601 700 601C666.7 601 633.3 601 600 601C566.7 601 533.3 601 500 601C466.7 601 433.3 601 400 601C366.7 601 333.3 601 300 601C266.7 601 233.3 601 200 601C166.7 601 133.3 601 100 601C66.7 601 33.3 601 16.7 601L0 601Z" fill="#f3f4f6"></path><path d="M0 520L16.7 524.8C33.3 529.7 66.7 539.3 100 543.5C133.3 547.7 166.7 546.3 200 542.7C233.3 539 266.7 533 300 530.5C333.3 528 366.7 529 400 527.7C433.3 526.3 466.7 522.7 500 522C533.3 521.3 566.7 523.7 600 523.5C633.3 523.3 666.7 520.7 700 522.7C733.3 524.7 766.7 531.3 800 532.8C833.3 534.3 866.7 530.7 883.3 528.8L900 527L900 601L883.3 601C866.7 601 833.3 601 800 601C766.7 601 733.3 601 700 601C666.7 601 633.3 601 600 601C566.7 601 533.3 601 500 601C466.7 601 433.3 601 400 601C366.7 601 333.3 601 300 601C266.7 601 233.3 601 200 601C166.7 601 133.3 601 100 601C66.7 601 33.3 601 16.7 601L0 601Z" fill="#f3f4f6"></path><path d="M0 556L16.7 554.3C33.3 552.7 66.7 549.3 100 551C133.3 552.7 166.7 559.3 200 557.2C233.3 555 266.7 544 300 538.7C333.3 533.3 366.7 533.7 400 536.2C433.3 538.7 466.7 543.3 500 545C533.3 546.7 566.7 545.3 600 544C633.3 542.7 666.7 541.3 700 540C733.3 538.7 766.7 537.3 800 541.5C833.3 545.7 866.7 555.3 883.3 560.2L900 565L900 601L883.3 601C866.7 601 833.3 601 800 601C766.7 601 733.3 601 700 601C666.7 601 633.3 601 600 601C566.7 601 533.3 601 500 601C466.7 601 433.3 601 400 601C366.7 601 333.3 601 300 601C266.7 601 233.3 601 200 601C166.7 601 133.3 601 100 601C66.7 601 33.3 601 16.7 601L0 601Z" fill="#f3f4f6"></path><path d="M0 574L16.7 572.2C33.3 570.3 66.7 566.7 100 564C133.3 561.3 166.7 559.7 200 561.8C233.3 564 266.7 570 300 568.7C333.3 567.3 366.7 558.7 400 558.3C433.3 558 466.7 566 500 567.5C533.3 569 566.7 564 600 564.5C633.3 565 666.7 571 700 570.7C733.3 570.3 766.7 563.7 800 561.3C833.3 559 866.7 561 883.3 562L900 563L900 601L883.3 601C866.7 601 833.3 601 800 601C766.7 601 733.3 601 700 601C666.7 601 633.3 601 600 601C566.7 601 533.3 601 500 601C466.7 601 433.3 601 400 601C366.7 601 333.3 601 300 601C266.7 601 233.3 601 200 601C166.7 601 133.3 601 100 601C66.7 601 33.3 601 16.7 601L0 601Z" fill="#f3f4f6"></path><path d="M0 574L16.7 576C33.3 578 66.7 582 100 582C133.3 582 166.7 578 200 576.2C233.3 574.3 266.7 574.7 300 574.3C333.3 574 366.7 573 400 572.3C433.3 571.7 466.7 571.3 500 574.8C533.3 578.3 566.7 585.7 600 588.8C633.3 592 666.7 591 700 587.2C733.3 583.3 766.7 576.7 800 576.5C833.3 576.3 866.7 582.7 883.3 585.8L900 589L900 601L883.3 601C866.7 601 833.3 601 800 601C766.7 601 733.3 601 700 601C666.7 601 633.3 601 600 601C566.7 601 533.3 601 500 601C466.7 601 433.3 601 400 601C366.7 601 333.3 601 300 601C266.7 601 233.3 601 200 601C166.7 601 133.3 601 100 601C66.7 601 33.3 601 16.7 601L0 601Z" fill="#f3f4f6"></path></svg>