<svg id="visual" viewBox="0 0 900 600" width="900" height="600" xmlns="http://www.w3.org/2000/svg" xmlns:xlink="http://www.w3.org/1999/xlink" version="1.1"><path d="M0 299L50 299L50 299L100 299L100 299L150 299L150 299L200 299L200 299L250 299L250 299L300 299L300 299L350 299L350 299L400 299L400 299L450 299L450 299L500 299L500 299L550 299L550 299L600 299L600 299L650 299L650 299L700 299L700 299L750 299L750 299L800 299L800 299L850 299L850 299L900 299L900 299L900 601L900 601L850 601L850 601L800 601L800 601L750 601L750 601L700 601L700 601L650 601L650 601L600 601L600 601L550 601L550 601L500 601L500 601L450 601L450 601L400 601L400 601L350 601L350 601L300 601L300 601L250 601L250 601L200 601L200 601L150 601L150 601L100 601L100 601L50 601L50 601L0 601Z" fill="#DC2626"></path></svg>